<svg width="235" height="54" viewBox="0 0 235 54" fill="none" xmlns="http://www.w3.org/2000/svg">
  <path d="M204.834 53.0536H202.277V50.4971L208.97 38.1797L199.86 20.8889V18.3325H202.417L210.969 34.6937L219.336 18.3325H221.706V20.7495L204.834 53.0536Z" fill="#FAFAF8"/>
  <path d="M192.977 41.8982C188.004 41.8982 185.122 39.2023 185.122 33.95V21.4931H181.357V18.3325H185.308L185.54 12.3829H188.794V18.3325H197.904V21.4931H188.794V33.4852C188.794 36.7388 189.956 38.7375 193.024 38.7375C196.091 38.7375 196.603 36.5064 196.696 35.7627H199.113V38.1797C198.462 39.8066 196.789 41.8982 192.977 41.8982Z" fill="#FAFAF8"/>
  <path d="M174.043 41.4334V18.3325H177.715V41.4334H174.043ZM173.671 12.29V7.96725H178.04V12.29H173.671Z" fill="#FAFAF8"/>
  <path d="M155.673 41.8982C149.073 41.8982 144.797 36.5994 144.797 29.8597C144.797 23.027 149.166 17.8676 155.673 17.8676C159.206 17.8676 162.32 19.355 164.04 22.4692V6.57282H167.712V41.4334H164.458L163.993 37.3431C162.134 40.3178 159.252 41.8982 155.673 41.8982ZM156.324 38.7375C160.554 38.7375 164.04 35.4374 164.04 29.8597C164.04 24.9327 161.158 21.0283 156.324 21.0283C151.304 21.0283 148.469 24.9327 148.469 29.8597C148.469 35.2514 151.723 38.7375 156.324 38.7375Z" fill="#FAFAF8"/>
  <path d="M136.321 41.4334V18.3325H139.993V41.4334H136.321ZM135.949 12.29V7.96725H140.318V12.29H135.949Z" fill="#FAFAF8"/>
  <path d="M122.597 41.8982C115.16 41.8982 111.069 36.5064 111.069 29.8597C111.069 23.2594 115.485 17.8212 122.597 17.8212C129.848 17.8212 131.474 22.5622 131.474 22.5622V24.9792H129.011C129.011 24.9792 128.035 20.9819 122.597 20.9819C117.344 20.9819 114.741 25.1651 114.741 29.8597C114.741 34.6007 117.344 38.7375 122.597 38.7375C128.267 38.7375 129.057 34.7402 129.057 34.7402H131.521V37.2036C131.521 37.2036 129.801 41.8982 122.597 41.8982Z" fill="#FAFAF8"/>
  <path d="M95.4405 41.8982C89.398 41.8982 86.6092 37.9473 86.6092 32.1372V18.3325H90.2812V31.7189C90.2812 36.274 92.2334 38.784 96.1842 38.784C100.367 38.784 102.645 35.8557 102.645 31.7654V18.3325H106.271V41.4334H103.063L102.784 37.7149C101.576 39.8995 99.2055 41.8982 95.4405 41.8982Z" fill="#FAFAF8"/>
  <path d="M64.0101 41.4334V6.57282H68.0539V38.1332H83.4855V41.4334H64.0101Z" fill="#FAFAF8"/>
  <path d="M231.248 41.6013C229.162 41.6013 228.406 40.4953 228.322 40.2993V39.3753H229.526C229.54 39.4593 230.016 40.2573 231.248 40.2573C232.172 40.2573 232.48 39.9493 232.48 39.4873C232.48 38.9133 231.906 38.7733 231.15 38.6193L230.338 38.4653C229.274 38.2833 228.448 37.7093 228.448 36.4353C228.448 35.2313 229.4 34.2373 231.108 34.2373C232.662 34.2373 233.404 34.8393 233.698 35.4553V36.3793H232.508C232.494 36.3093 232.158 35.5673 231.094 35.5673C230.31 35.5673 230.016 35.9033 230.016 36.3513C230.016 36.7993 230.436 37.0373 231.066 37.1633L231.878 37.3173C233.026 37.5273 234.034 37.9893 234.034 39.3193C234.034 40.6213 233.068 41.6013 231.248 41.6013Z" fill="#FAFAF8"/>
  <path d="M224.7 45.0733C223.538 45.0733 222.936 44.5553 222.74 44.0653V43.1133H223.944C223.944 43.1693 224.056 43.5893 224.63 43.5893C225.204 43.5893 225.344 43.2533 225.344 42.5113V34.4053H227.038V42.5113C227.038 44.0933 226.338 45.0733 224.7 45.0733ZM225.288 32.9493V31.2273H227.094V32.9493H225.288Z" fill="#FAFAF8"/>
  <path d="M221.848 41.4333V39.5153H223.766V41.4333H221.848Z" fill="#FAFAF8"/>
  <path d="M22.8266 0.634041C23.863 0.0259059 25.0892 -0.156596 26.2191 0.137948C27.3502 0.432079 28.2926 1.17879 28.8549 2.20338C29.8195 3.95944 30.7838 5.71587 31.7484 7.47193C37.8849 18.6433 44.0221 29.8143 50.1586 40.9856C51.4874 43.3837 50.1807 45.8003 47.4398 45.7327C32.282 45.3031 17.1241 44.8731 1.9662 44.4436C0.24448 44.4049 -0.585363 42.8458 0.46327 41.4797C5.46609 35.0407 10.4692 28.6014 15.4721 22.1624C16.7012 20.5803 17.9304 18.9983 19.1596 17.4163C19.3178 17.2127 19.554 17.0796 19.8129 17.0432C20.0719 17.0071 20.3325 17.0706 20.5404 17.2229C20.7484 17.3753 20.8884 17.6046 20.932 17.8626C20.9754 18.1203 20.9191 18.3856 20.7728 18.5979C19.6352 20.2471 18.4974 21.8969 17.3598 23.5462C13.4349 29.2358 9.50925 34.9249 5.58436 40.6145C17.6732 40.272 29.7621 39.9297 41.851 39.5872C36.0485 30.3109 30.2462 21.0344 24.4437 11.7581C23.3812 10.0595 22.3187 8.36094 21.2562 6.66236C20.6361 5.67183 20.4439 4.4855 20.7387 3.35474C21.0326 2.22443 21.79 1.24229 22.8266 0.634041Z" fill="#FAFAF8"/>
</svg>
