<svg width="172" height="39" viewBox="0 0 172 39" fill="none" xmlns="http://www.w3.org/2000/svg">
    <path d="M148.069 39H146.838V37.7533L151.43 28.6557L144.675 15.2451V13.9647H145.94L152.395 26.8024L158.617 13.9647H159.814V15.144L148.069 39Z" fill="#FAFAF8"/>
    <path d="M139.267 30.9133C136.239 30.9133 134.11 29.0937 134.11 25.421V15.5484H131.415V13.9647H134.243L134.376 9.51699H135.906V13.9647H142.428V15.5484H135.906V25.1177C135.906 27.6786 136.905 29.3296 139.3 29.3296C141.563 29.3296 142.195 27.6112 142.295 26.4655H143.559V27.7459C143.193 29.2285 141.962 30.9133 139.267 30.9133Z" fill="#FAFAF8"/>
    <path d="M126.168 30.5763V13.9647H127.965V30.5763H126.168ZM125.869 8.80939V6.31596H128.298V8.80939H125.869Z" fill="#FAFAF8"/>
    <path d="M112.514 30.9132C107.989 30.9132 104.728 27.2068 104.728 22.2199C104.728 17.1994 108.122 13.6277 112.514 13.6277C115.043 13.6277 117.538 14.5712 118.769 17.4352V5.30507H120.566V30.5763H119.035L118.703 27.1731C117.305 29.8013 115.076 30.9132 112.514 30.9132ZM112.714 29.3296C115.642 29.3296 118.769 27.1731 118.769 22.2199C118.769 18.2776 116.573 15.2114 112.747 15.2114C108.987 15.2114 106.525 18.3113 106.525 22.2199C106.525 26.9035 109.619 29.3296 112.714 29.3296Z" fill="#FAFAF8"/>
    <path d="M98.5171 30.5763V13.9647H100.314V30.5763H98.5171ZM98.2176 8.80939V6.31596H100.647V8.80939H98.2176Z" fill="#FAFAF8"/>
    <path d="M87.7262 30.9132C82.8019 30.9132 79.7741 27.1057 79.7741 22.2873C79.7741 17.469 82.9017 13.6277 87.7595 13.6277C92.9499 13.6277 94.1145 17.3679 94.1145 17.3679V18.6483H92.8834C92.8834 18.6483 92.0849 15.2451 87.7262 15.2451C83.667 15.2451 81.5708 18.6483 81.5708 22.2873C81.5708 25.8927 83.667 29.3296 87.7595 29.3296C92.2179 29.3296 92.9167 25.859 92.9167 25.859H94.1477V27.1057C94.1477 27.1057 92.9167 30.9132 87.7262 30.9132Z" fill="#FAFAF8"/>
    <path d="M68.2468 30.9132C64.1543 30.9132 61.925 28.4535 61.925 23.9047V13.9647H63.7217V23.5003C63.7217 27.51 65.4519 29.3296 68.4797 29.3296C71.2413 29.3296 73.5038 27.4426 73.5038 23.534V13.9647H75.3338V30.5763H73.77L73.6369 27.3753C72.7718 29.498 70.9418 30.9132 68.2468 30.9132Z" fill="#FAFAF8"/>
    <path d="M45.5381 30.5763V5.30507H47.4679V28.9252H58.9469V30.5763H45.5381Z" fill="#FAFAF8"/>
    <path d="M169.492 30.9504C167.567 30.9504 166.874 29.9122 166.749 29.5896V28.846H167.484C167.581 29.1687 168.135 29.9964 169.479 29.9964C170.532 29.9964 170.975 29.5755 170.975 28.9863C170.975 28.2567 170.31 28.0463 169.423 27.8499L168.634 27.6675C167.719 27.457 166.902 26.966 166.902 25.7314C166.902 24.6371 167.788 23.6971 169.326 23.6971C170.753 23.6971 171.474 24.2864 171.737 24.9457V25.6893H171.003C170.933 25.3666 170.504 24.6511 169.34 24.6511C168.384 24.6511 167.941 25.1001 167.941 25.6893C167.941 26.3066 168.453 26.5872 169.229 26.7696L169.964 26.938C170.975 27.1765 172 27.5973 172 28.86C172 30.0385 171.183 30.9504 169.492 30.9504Z" fill="#FAFAF8"/>
    <path d="M163.143 34.4578C162.104 34.4578 161.619 33.9668 161.48 33.602V32.8585H162.201C162.228 33.0268 162.436 33.4617 163.073 33.4617C163.711 33.4617 163.918 33.0549 163.918 32.2271V23.8374H165.013V32.2271C165.013 33.6581 164.459 34.4578 163.143 34.4578ZM163.821 22.0135V20.7088H165.124V22.0135H163.821Z" fill="#FAFAF8"/>
    <path d="M160.492 30.8101V29.4072H161.892V30.8101H160.492Z" fill="#FAFAF8"/>
    <path d="M15.8577 0.464392C16.605 0.0203569 17.4877 -0.114198 18.2965 0.0994939C19.1063 0.312677 19.7759 0.856608 20.1732 1.60247C20.8776 2.92332 21.5821 4.24414 22.2865 5.56498C26.6003 13.6541 30.9142 21.7432 35.2281 29.8323C36.0744 31.402 35.2423 32.9838 33.4772 32.9287C22.6267 32.5389 11.7761 32.1492 0.925536 31.7593C0.115489 31.7363 -0.277883 30.9938 0.220901 30.347C4.41344 24.9926 8.60605 19.6382 12.7986 14.2837C13.7196 13.1074 14.6406 11.9311 15.5617 10.7548C14.7252 11.9943 13.8887 13.2336 13.0523 14.473C9.57628 19.6238 6.10007 24.7745 2.6241 29.9253C11.7042 29.5991 20.7844 29.2728 29.8645 28.9466C25.6161 22.1763 21.3675 15.4061 17.1191 8.63579C16.324 7.36876 15.529 6.10153 14.7339 4.8345C14.2848 4.11947 14.1426 3.26215 14.3537 2.44233C14.5641 1.62304 15.1105 0.908424 15.8577 0.464392Z" fill="#FAFAF8"/>
</svg>
