<svg width="79" height="16" viewBox="0 0 79 16" fill="none" xmlns="http://www.w3.org/2000/svg" class="w-[79px]">
    <path
      d="M7.67338 10.993C7.19167 10.5806 6.20771 10.1459 5.246 10.1459C4.10119 10.1459 3.07102 10.7175 3.07102 11.7477C3.07102 12.9618 3.98653 13.7404 5.4522 13.7404C6.36857 13.7404 7.14632 13.5573 7.67338 13.2595V10.993ZM10.5354 14.519C9.64215 15.2283 7.92493 15.9616 5.2229 15.9616C1.62846 15.9616 -0.0203125 13.9697 -0.0203125 11.7032C-0.0203125 9.02424 2.54311 8.01718 4.74204 8.01718C5.54375 8.01718 7.00856 8.29183 7.67338 8.79579V7.60478C7.67338 6.64306 6.96322 5.97911 5.36065 5.97911C3.84878 5.97911 2.56707 6.46082 2.10931 6.66617L1.23915 4.55964C2.29241 4.05654 3.73498 3.57568 5.6122 3.57568C9.50439 3.57568 10.5354 5.4298 10.5354 8.31493V14.5199V14.519Z"
      fill="#fafaf8"></path>
    <path
      d="M18.654 15.9392C16.2728 15.9392 14.0978 15.3667 14.0978 11.9554V6.2998H12.0375V3.94087H14.0978V-0.0197754H17.0976V3.94087H20.005V6.2998H17.0976V11.4746C17.0976 13.718 18.334 13.7642 19.7988 13.7873L18.654 15.9392Z"
      fill="#fafaf8"></path>
    <path
      d="M31.0326 9.80273C31.0326 7.58155 29.6131 6.00209 27.919 6.00209C26.0418 6.00209 24.6446 7.58155 24.6446 9.87118C24.6446 12.1608 26.1787 13.6265 27.8266 13.6265C29.75 13.6265 31.0317 12.0924 31.0317 9.80273M27.8497 15.9614C24.2775 15.9614 21.507 13.2372 21.507 9.80273C21.507 6.36829 24.2775 3.57471 27.9182 3.57471C31.5588 3.57471 34.1915 6.41364 34.1915 9.80273C34.1915 13.1918 31.3979 15.9614 27.8489 15.9614"
      fill="#fafaf8"></path>
    <path
      d="M50.3302 15.6185V8.24563C50.3302 6.89461 49.804 6.20841 48.7054 6.20841C47.6068 6.20841 46.6211 6.91772 46.1402 7.44477V15.6185H43.1413V8.13183C43.1413 6.78082 42.4773 6.20841 41.3556 6.20841C40.3708 6.20841 39.3184 7.01012 38.9514 7.46788V15.6185H35.9516V3.91879H38.9514V5.13205C39.4553 4.65119 40.8063 3.57568 42.5911 3.57568C44.4692 3.57568 45.1332 4.71964 45.4309 5.33825C46.3704 4.62895 47.8352 3.57568 49.5978 3.57568C52.002 3.57568 53.33 4.8805 53.33 7.74253V15.6185H50.3302Z"
      fill="#fafaf8"></path>
    <path
      d="M64.6131 9.80273C64.6131 7.58155 63.1936 6.00209 61.4995 6.00209C59.6223 6.00209 58.225 7.58155 58.225 9.87118C58.225 12.1608 59.7592 13.6265 61.4071 13.6265C63.3305 13.6265 64.6122 12.0924 64.6122 9.80273M61.4302 15.9614C57.8588 15.9614 55.0875 13.2372 55.0875 9.80273C55.0875 6.36829 57.858 3.57471 61.4986 3.57471C65.1393 3.57471 67.772 6.41364 67.772 9.80273C67.772 13.1918 64.9784 15.9614 61.4293 15.9614"
      fill="#fafaf8"></path>
    <path
      d="M70.514 12.793C71.3063 13.3834 72.8053 13.9053 73.8945 13.765C74.5987 13.6743 75.3782 13.273 75.2455 12.2514C75.0462 10.707 69.9501 10.5804 69.5565 7.53783C69.3247 5.7436 70.6996 3.88093 73.1527 3.5635C75.2875 3.28799 76.6958 4.00585 77.2973 4.36692L77.2451 6.92178C77.2451 6.92178 76.7557 6.63002 76.529 6.50339C76.3116 6.38104 75.0787 5.60072 73.9655 5.74446C73.1938 5.84457 72.5846 6.31515 72.6701 6.97398C72.8994 8.7451 77.8509 8.47472 78.2735 11.7449C78.5636 13.9926 77.0432 15.6208 74.3865 15.9639C72.3202 16.2309 70.7185 15.6302 69.7003 15.069L69.7063 12.2754L70.514 12.793Z"
      fill="#fafaf8"></path>
</svg>
