<svg width="52" height="40" viewBox="0 0 52 40" xmlns="http://www.w3.org/2000/svg" aria-label="Birdlife Logo"><g clip-path="url(#clip0_5921_3785)"><path fill-rule="evenodd" clip-rule="evenodd" d="M18.4114 1.47781C17.8726 0.887479 16.886 0.229792 15.9153 0.00395979L15.9074 0C16.2363 1.69968 16.1332 3.08637 15.9272 3.93819C15.4518 5.88352 14.806 7.04042 14.0017 8.23693C13.3361 9.23138 11.783 10.8597 10.6578 11.5135C12.2069 11.9255 13.6055 12.0523 14.8892 12.084C15.7291 12.1038 17.2545 11.9889 18.0231 11.7631C18.7363 11.5531 19.7268 11.3827 20.4042 11.4699C21.2239 11.6945 22.1319 11.9119 22.9546 12.109C23.0029 12.1205 23.0508 12.132 23.0984 12.1434C23.0726 12.1255 22.9368 12.033 22.746 11.9031C22.2622 11.5738 21.4248 11.0038 21.1293 10.7964L21.0983 10.7515C20.5819 10.0033 20.362 9.6846 19.8258 9.36213C19.1609 8.9609 18.4002 9.09407 17.7747 9.20356C17.7517 9.20759 17.7288 9.2116 17.7062 9.21554C17.7735 7.1355 18.9581 5.61807 19.5603 5.07132C19.7228 4.92472 19.7822 4.67908 19.7664 4.37797C19.7228 3.57369 19.1642 2.30586 18.4114 1.47781ZM4.03739 0.867532C6.50966 0.693205 9.54056 1.95311 10.7252 2.81682C12.0485 3.78354 13.4312 5.8081 14.0691 7.46024C13.2212 8.89447 12.0009 10.1266 11.0065 10.8873C10.1111 11.5688 5.3488 14.1322 5.23787 14.0292C5.13486 13.9262 5.59048 13.5339 5.92329 13.2606C5.98056 13.2133 6.04938 13.1597 6.12475 13.101L6.12483 13.101C6.58647 12.7415 7.29356 12.191 7.09603 11.7312C6.95736 11.4024 5.89555 11.2201 4.80601 11.1964C3.96608 11.1805 2.55958 11.03 2.55562 10.824C2.5535 10.7077 3.0961 10.7155 3.98124 10.7282C4.75514 10.7393 5.7909 10.7542 6.9534 10.6932C8.34405 10.6179 10.4201 9.82157 10.3884 8.61317C10.3528 7.40477 9.94864 6.23996 8.86703 4.90874C7.38921 3.09416 5.36861 1.6837 4.04532 0.867532H4.03739ZM19.1602 14.5325C30.3528 13.7757 37.2901 15.4556 44.1285 17.8486C43.998 17.8284 43.8956 17.8176 43.7996 17.8074C43.6887 17.7957 43.5864 17.7848 43.4589 17.7615C43.5897 17.8288 43.8075 17.916 43.9462 17.9714L43.9463 17.9715C43.5519 17.923 43.0398 17.8414 42.5839 17.7687L42.5838 17.7687L42.3892 17.7377C42.4733 17.7868 42.938 17.9255 43.3895 18.0603C43.7034 18.154 44.011 18.2458 44.18 18.3043C44.0574 18.3043 43.9412 18.316 43.8495 18.3253C43.7812 18.3321 43.7265 18.3377 43.6927 18.336C43.8871 18.3821 44.0678 18.4501 44.2461 18.5173L44.2462 18.5173C44.2823 18.5309 44.3183 18.5445 44.3543 18.5578C44.0374 18.5341 43.8195 18.5341 43.6174 18.538C44.0889 18.7361 44.6237 18.9461 45.1784 19.1482C44.9158 19.1239 44.3224 18.9802 43.4437 18.7672C40.5847 18.0744 34.7044 16.6494 27.3615 16.2282C19.7941 15.7924 8.91059 17.5832 1.57699 19.6513L1.55322 19.5642C1.89576 19.4535 2.23552 19.3414 2.57888 19.2282C6.20701 18.0312 10.2378 16.7013 22.2109 15.5467C16.573 15.1941 5.75291 17.6664 2.57541 18.7084C2.53183 18.7223 2.5239 18.7223 2.51598 18.7223C2.50806 18.7223 2.50013 18.7223 2.45655 18.7361C4.18001 18.1141 9.40584 16.565 14.2791 15.6814C12.405 15.7567 9.03737 16.4105 8.17367 16.664V16.6402C9.02549 16.2995 14.6237 14.8415 19.1642 14.5325H19.1602Z" fill="white"></path><path fill-rule="evenodd" clip-rule="evenodd" d="M0.796355 23.2685H0V22.2106H3.51823C6.16482 22.2106 7.91204 23.7994 7.91204 26.541C7.91204 29.2827 6.16482 30.8952 3.51823 30.8952H1.58479C1.03011 30.8952 0.796355 30.6615 0.796355 30.1068V23.2685ZM3.43502 29.8414H2.3019C2.13154 29.8414 2.03249 29.7463 2.03249 29.5719V23.2724H3.43502C5.35262 23.2724 6.63233 24.4055 6.63233 26.545C6.63233 28.6845 5.36846 29.8414 3.43502 29.8414ZM12.4247 27.0247H12.1553L12.1474 27.0287C11.1014 27.0287 8.39538 27.1515 8.39538 29.1562C8.39538 30.3963 9.44134 31.05 10.5111 31.05C12.0008 31.05 12.4921 29.8179 12.4921 29.8179H12.5158C12.5158 29.8179 12.4921 29.9764 12.4921 30.1863C12.4921 30.6301 12.7139 30.8995 13.2686 30.8995H14.3898V29.8773H13.8867C13.7163 29.8773 13.6173 29.7941 13.6173 29.6079V26.9613C13.6173 25.5825 13.0745 24.5247 11.0578 24.5247C10.4516 24.5247 8.90251 24.6713 8.90251 25.6935V26.3076H10.0237V25.951C10.0237 25.5469 10.7488 25.4716 11.0459 25.4716C12.0206 25.4716 12.4247 25.8678 12.4247 26.9613V27.0247ZM12.4366 28.1063C12.4366 29.0294 11.7868 30.0873 10.7765 30.0873L10.7726 30.0833C9.98413 30.0833 9.60378 29.592 9.60378 29.0889C9.60378 27.9439 11.2282 27.8963 12.1276 27.8963H12.4366V28.1063ZM15.2258 25.6935H14.4176V24.7347H15.2535V23.0231H16.4223V24.7347H17.912V25.6935H16.4223V28.55C16.4223 29.7941 17.2821 29.9526 17.7377 29.9526C17.908 29.9526 18.019 29.9288 18.019 29.9288V30.9866C18.019 30.9866 17.8605 31.0104 17.599 31.0104C16.8106 31.0104 15.2258 30.7648 15.2258 28.6847V25.6935ZM22.4802 27.0247H22.2108L22.2029 27.0287C21.1569 27.0287 18.4509 27.1515 18.4509 29.1562C18.4509 30.3963 19.4969 31.05 20.5666 31.05C22.0563 31.05 22.5476 29.8179 22.5476 29.8179H22.5713C22.5713 29.8179 22.5476 29.9764 22.5476 30.1863C22.5476 30.6301 22.7694 30.8995 23.3241 30.8995H24.4454V29.8773H23.9422C23.7718 29.8773 23.6728 29.7941 23.6728 29.6079V26.9613C23.6728 25.5825 23.13 24.5247 21.1133 24.5247C20.5072 24.5247 18.958 24.6713 18.958 25.6935V26.3076H20.0793V25.951C20.0793 25.5469 20.8043 25.4716 21.1015 25.4716C22.0761 25.4716 22.4802 25.8678 22.4802 26.9613V27.0247ZM22.4961 28.1063C22.4961 29.0294 21.8463 30.0873 20.836 30.0873L20.832 30.0833C20.0436 30.0833 19.6633 29.592 19.6633 29.0889C19.6633 27.9439 21.2877 27.8963 22.187 27.8963H22.4961V28.1063ZM24.8891 30.0872L29.172 24.057C29.5167 23.5776 29.8257 23.2567 29.8257 23.2567V23.2329C29.8257 23.2329 29.5919 23.2686 29.172 23.2686H26.3788C26.2084 23.2686 26.1094 23.3558 26.1094 23.538V24.0927H24.9881V22.9992C24.9881 22.4445 25.2219 22.2108 25.7766 22.2108H31.3511V23.0111L27.0563 29.0531C26.7235 29.5325 26.4145 29.8415 26.4145 29.8415V29.8653C26.4145 29.8653 26.6482 29.8415 27.0563 29.8415H30.1189C30.2893 29.8415 30.3883 29.7425 30.3883 29.5721V29.0174H31.5214V30.1109C31.5214 30.6656 31.2877 30.8994 30.733 30.8994H24.8891V30.0872ZM38.5063 27.7735C38.5063 25.8916 37.0048 24.5247 35.1466 24.5247C33.2884 24.5247 31.7987 25.8797 31.7987 27.7735C31.7987 29.6673 33.2884 31.0461 35.1466 31.0461C37.0048 31.0461 38.5063 29.6554 38.5063 27.7735ZM37.2861 27.7735C37.2861 29.077 36.3273 30.012 35.1466 30.012C33.9778 30.012 33.019 29.0651 33.019 27.7735C33.019 26.4819 33.9659 25.5588 35.1466 25.5588C36.3273 25.5588 37.2861 26.47 37.2861 27.7735ZM39.4295 25.9629C39.4295 25.7767 39.3305 25.6935 39.1601 25.6935H38.6569V24.6713H39.8019C40.3328 24.6713 40.5904 24.905 40.5904 25.3607V25.5944C40.5904 25.7925 40.5666 25.951 40.5666 25.951H40.5904C40.836 25.4082 41.5729 24.5247 42.9279 24.5247C44.4057 24.5247 45.0674 25.325 45.0674 26.9098V29.6039C45.0674 29.7901 45.1664 29.8733 45.3368 29.8733H45.84V30.8955H44.6593C44.1046 30.8955 43.8709 30.6618 43.8709 30.1071V27.1792C43.8709 26.3036 43.7005 25.6182 42.7021 25.6182C41.7037 25.6182 40.9786 26.2442 40.733 27.1436C40.6458 27.3892 40.6221 27.6744 40.6221 27.9795V30.8955H39.4295V25.9629ZM51.6442 27.4407C51.6442 25.8282 50.7092 24.5247 48.9619 24.5247C47.1909 24.5247 45.836 25.8044 45.836 27.7854C45.836 29.6317 47.1751 31.0461 49.1442 31.0461C50.622 31.0461 51.5452 30.1348 51.5452 30.1348L51.0301 29.287C51.0301 29.287 50.313 30.012 49.2076 30.012C48.1022 30.012 47.1434 29.2592 47.0681 27.932H51.6085C51.6085 27.932 51.6442 27.5992 51.6442 27.4407ZM48.9461 25.4716C49.7226 25.4716 50.3764 26.0263 50.412 27.0603H50.4081H47.1117C47.2979 26.0263 48.0348 25.4716 48.9461 25.4716Z" fill="white"></path><path fill-rule="evenodd" clip-rule="evenodd" d="M32.6783 34.1837C32.6783 34.4373 32.8843 34.6433 33.1339 34.6433C33.3875 34.6433 33.5895 34.4373 33.5895 34.1837C33.5895 33.9301 33.3875 33.7241 33.1339 33.7241C32.8803 33.7241 32.6783 33.9301 32.6783 34.1837ZM27.9992 38.9103H30.2298C31.2321 38.9103 31.8779 38.3279 31.8779 37.4325C31.8779 36.8343 31.557 36.3509 31.0657 36.1845C31.45 35.9745 31.6759 35.5664 31.6759 35.0791C31.6759 34.2748 31.0935 33.7558 30.1862 33.7558H27.9992V34.4254H28.3518C28.4271 34.4333 28.4627 34.4729 28.4627 34.5561V38.1259C28.4627 38.217 28.4191 38.2566 28.332 38.2566H27.9992V38.9103ZM29.2274 38.2447V36.545H30.2654C30.7607 36.545 31.0935 36.8739 31.0935 37.3969C31.0935 37.9198 30.7765 38.2447 30.2654 38.2447H29.2274ZM30.1941 35.9072H29.2274V34.4294H30.1782C30.622 34.4294 30.8993 34.7107 30.8993 35.1584C30.8993 35.6061 30.618 35.9072 30.1941 35.9072ZM43.6727 38.9103H41.8858C41.561 38.9103 41.4183 38.7638 41.4183 38.4349V34.5403C41.4183 34.4492 41.3787 34.4096 41.2876 34.4096H40.9627V33.7558H41.6917C42.0166 33.7558 42.1592 33.9024 42.1592 34.2313V38.1259C42.1592 38.213 42.2028 38.2566 42.29 38.2566H43.332C43.4152 38.2566 43.4627 38.213 43.4627 38.1259V37.7851H44.1442V38.4349C44.1442 38.7638 43.9976 38.9103 43.6766 38.9103H43.6727ZM36.6601 37.0602C36.6601 38.2369 37.2979 38.9976 38.2805 38.9976L38.2765 39.0095C39.0055 39.0095 39.3502 38.5578 39.4533 38.3914V38.5063C39.4533 38.7797 39.6117 38.9184 39.9208 38.9184H40.6101V38.2726H40.2932C40.2021 38.2726 40.1585 38.229 40.1585 38.1379V34.2551C40.1585 33.9184 40.0079 33.7678 39.6751 33.7678H38.9659V34.4136H39.2829C39.374 34.4136 39.4176 34.4532 39.4176 34.5483V35.4675C39.4176 35.5048 39.42 35.5409 39.4222 35.5731L39.4222 35.5732C39.4239 35.5991 39.4255 35.6224 39.4255 35.6418C39.3859 35.5864 39.3185 35.4992 39.2116 35.412C39.0491 35.2773 38.7639 35.1228 38.3241 35.1228C37.3296 35.1228 36.6601 35.8835 36.6601 37.0602ZM37.4168 37.0562C37.4168 36.2995 37.8328 35.7726 38.4311 35.7726L38.435 35.7686C39.1284 35.7686 39.4414 36.4303 39.4414 37.0483C39.4414 37.9992 38.9144 38.3399 38.4192 38.3399C37.8209 38.3399 37.4168 37.813 37.4168 37.0562ZM34.6315 38.9104H35.3724V37.4009C35.3724 37.1513 35.3962 36.9373 35.4556 36.7511C35.6101 36.236 36.0024 35.9072 36.4501 35.9072C36.5055 35.9072 36.5848 35.9151 36.5848 35.9151H36.6125V35.1742H36.5927C36.5887 35.1703 36.5174 35.1663 36.4738 35.1663C35.9826 35.1663 35.5586 35.4872 35.3487 36.0181V35.8874V35.6536C35.3487 35.3486 35.1941 35.2059 34.8613 35.2059H34.1799V35.8517H34.4968C34.588 35.8517 34.6315 35.8913 34.6315 35.9864V38.9104ZM47.2741 38.9103H46.553V35.8953H46.1133V35.297H46.553V35.1029C46.553 33.8866 47.4999 33.7558 47.908 33.7558C48.0412 33.7558 48.1361 33.7705 48.1623 33.7746L48.1695 33.7756H48.1893V34.4135H48.1616C48.1616 34.4135 48.0942 34.3937 47.9912 34.3937C47.6624 34.3937 47.2741 34.5205 47.2741 35.1148V35.2931H47.9992V35.8913H47.2741V38.9064V38.9103ZM48.0903 37.0602C48.0903 38.1814 48.8866 38.9976 49.9881 38.9976L49.992 39.0016C50.828 39.0016 51.3668 38.4588 51.3668 38.4588L51.3787 38.4469L51.0618 37.9041L51.0419 37.9239C51.038 37.9279 50.618 38.3439 50.0277 38.3439C49.473 38.3439 48.8946 37.9794 48.8391 37.1672H51.4104V37.1474L51.4119 37.1307L51.4119 37.1306L51.4119 37.1305L51.412 37.1302L51.412 37.13C51.4167 37.0804 51.4302 36.9368 51.4302 36.8581C51.4302 35.8201 50.8082 35.1228 49.885 35.1228C48.8272 35.1228 48.0903 35.939 48.0903 37.0602ZM50.6814 36.6085H48.8668C48.9698 36.0578 49.3541 35.721 49.8771 35.721C50.3407 35.721 50.6537 36.0697 50.6814 36.6085ZM33.9501 38.9104H33.2488C32.916 38.9104 32.7655 38.7599 32.7655 38.4231V35.9865C32.7655 35.8914 32.7219 35.8518 32.6308 35.8518H32.3138V35.206H33.0151C33.3479 35.206 33.4984 35.3565 33.4984 35.6933V38.1299C33.4984 38.221 33.542 38.2646 33.6331 38.2646H33.9501V38.9104ZM45.8874 38.9104H45.1862C44.8534 38.9104 44.7028 38.7599 44.7028 38.4231V35.9865C44.7028 35.8914 44.6592 35.8518 44.5681 35.8518H44.2512V35.206H44.9524C45.2852 35.206 45.4358 35.3565 45.4358 35.6933V38.1299C45.4358 38.221 45.4794 38.2646 45.5705 38.2646H45.8874V38.9104ZM44.6118 34.1837C44.6118 34.4373 44.8178 34.6433 45.0674 34.6433C45.3209 34.6433 45.523 34.4373 45.523 34.1837C45.523 33.9301 45.3209 33.7241 45.0674 33.7241C44.8138 33.7241 44.6118 33.9301 44.6118 34.1837ZM21.1609 35.7526C21.1609 35.6734 21.1173 35.6377 21.046 35.6377H20.832V35.2019H21.3352C21.569 35.2019 21.672 35.301 21.672 35.5387V36.4024C21.672 36.5292 21.6601 36.6243 21.6601 36.6243H21.672C21.672 36.6243 21.9018 36.1884 22.5278 36.1884C23.2409 36.1884 23.6926 36.755 23.6926 37.5751C23.6926 38.3952 23.1854 38.9658 22.4881 38.9658C21.8978 38.9658 21.6561 38.522 21.6561 38.522H21.6442C21.6442 38.522 21.6561 38.6052 21.6561 38.7201V38.9024H21.1688V35.7526H21.1609ZM22.4089 38.53C22.8289 38.53 23.1736 38.1853 23.1736 37.583C23.1736 36.9808 22.8645 36.6361 22.4208 36.6361C22.0285 36.6361 21.6601 36.9135 21.6601 37.591C21.6601 38.0624 21.9057 38.5339 22.4089 38.5339V38.53ZM24.7306 39.1799C24.6315 39.4176 24.4691 39.5642 24.2631 39.5642V39.5602C24.0372 39.5602 23.8748 39.37 23.8748 39.37L23.6648 39.7385C23.6648 39.7385 23.8946 40 24.2868 40C24.6593 40 24.9802 39.786 25.1426 39.378L26.1925 36.7908C26.2282 36.7076 26.2757 36.6878 26.3589 36.6878H26.4263V36.252H26.1212C25.9073 36.252 25.8122 36.3075 25.7329 36.5174L25.1822 38.0111C25.1307 38.1498 25.0951 38.332 25.0951 38.332H25.0832C25.0832 38.332 25.0396 38.1458 24.9881 38.0111L24.3859 36.5174C24.3027 36.3114 24.2234 36.252 24.0095 36.252H23.7123V36.6878H23.7757C23.8589 36.6878 23.9065 36.7076 23.9421 36.7908L24.8494 38.8907L24.7306 39.1799Z" fill="white"></path><path d="M1.78685 29.8415H0V30.8993H1.78685V29.8415Z" fill="white"></path></g><defs><clipPath id="clip0_5921_3785"><rect width="52" height="40" fill="white"></rect></clipPath></defs></svg>
