<svg width="245" height="78" viewBox="0 0 245 78" fill="none" xmlns="http://www.w3.org/2000/svg">
    <path d="M0 31.0782L0 31.036C0 26.8455 3.16039 23.4135 7.68666 23.4135C10.4652 23.4135 12.1277 24.3409 13.4965 25.6879L11.4349 28.0665C10.2969 27.0379 9.14007 26.4048 7.66402 26.4048C5.17827 26.4048 3.39055 28.4672 3.39055 30.9945V31.0367C3.39055 33.564 5.13978 35.6701 7.66402 35.6701C9.35062 35.6701 10.3837 34.994 11.5398 33.9451L13.6014 36.0294C12.0877 37.6503 10.4018 38.6623 7.55912 38.6623C3.22076 38.6615 0 35.3117 0 31.0782Z" fill="#FAFAF8"/>
    <path d="M14.3491 31.0782V31.036C14.3491 26.8455 17.6574 23.4135 22.2041 23.4135C26.7537 23.4135 30.0175 26.8048 30.0175 30.9937V31.036C30.0175 35.2249 26.7122 38.6615 22.1648 38.6615C17.6152 38.6615 14.3491 35.2694 14.3491 31.0782ZM26.6262 31.0782V31.036C26.6262 28.5102 24.7751 26.4048 22.1648 26.4048C19.553 26.4048 17.7367 28.4672 17.7367 30.9945V31.0367C17.7367 33.564 19.5915 35.6701 22.2041 35.6701C24.8158 35.6694 26.6262 33.607 26.6262 31.0782Z" fill="#FAFAF8"/>
    <path d="M32.1694 23.6676H35.1608L42.0672 32.7428V23.6676H45.2668V38.4085H42.5086L35.3691 29.0368V38.4085H32.1694V23.6676Z" fill="#FAFAF8"/>
    <path d="M47.8647 36.2621L49.78 33.9635C51.1074 35.0607 52.4989 35.7565 54.1817 35.7565C55.5069 35.7565 56.3075 35.2252 56.3075 34.3634V34.3219C56.3075 33.5009 55.8057 33.0798 53.3396 32.4482C50.3686 31.6913 48.4541 30.8665 48.4541 27.9393V27.9C48.4541 25.2249 50.6025 23.4568 53.6143 23.4568C55.7604 23.4568 57.5919 24.1299 59.0861 25.3305L57.404 27.7733C56.097 26.8685 54.8164 26.3206 53.5728 26.3206C52.3306 26.3206 51.6771 26.8888 51.6771 27.605V27.6457C51.6771 28.6154 52.3073 28.9309 54.8556 29.5821C57.8432 30.3616 59.5275 31.4393 59.5275 34.0058V34.0488C59.5275 36.9752 57.2946 38.618 54.1176 38.618C51.8869 38.6188 49.6336 37.8378 47.8647 36.2621Z" fill="#FAFAF8"/>
    <path d="M62.3677 23.6676H73.4849V26.5541H65.5899V29.5416H72.5378V32.4281H65.5899V35.5259H73.5935V38.4085H62.3677V23.6676Z" fill="#FAFAF8"/>
    <path d="M76.936 23.6676H83.6711C85.5464 23.6676 86.9983 24.1936 87.9672 25.1648C88.7898 25.9821 89.2312 27.1442 89.2312 28.5312V28.575C89.2312 30.9543 87.9468 32.4485 86.0746 33.1435L89.6742 38.4093H85.8837L82.7271 33.6906H82.681H80.1764V38.4093H76.936V23.6676ZM83.4628 30.8283C85.04 30.8283 85.9471 29.9846 85.9471 28.7455V28.7002C85.9471 27.3132 84.9759 26.591 83.3964 26.591H80.1764V30.8283H83.4628Z" fill="#FAFAF8"/>
    <path d="M90.4189 23.6676H93.9967L97.8498 34.0521L101.704 23.6676H105.201L99.2413 38.5157H96.3775L90.4189 23.6676Z" fill="#FAFAF8"/>
    <path d="M110.157 23.5603H113.148L119.468 38.4084H116.077L114.727 35.1008H108.493L107.146 38.4084H103.842L110.157 23.5603ZM113.571 32.24L111.612 27.4565L109.652 32.24H113.571Z" fill="#FAFAF8"/>
    <path d="M123.069 26.659H118.583V23.6676H130.798V26.659H126.31V38.4085H123.069V26.659Z" fill="#FAFAF8"/>
    <path d="M136.458 23.6676H133.22V38.4093H136.458V23.6676Z" fill="#FAFAF8"/>
    <path d="M139.077 31.0782V31.036C139.077 26.8455 142.384 23.4135 146.934 23.4135C151.481 23.4135 154.745 26.8048 154.745 30.9937V31.036C154.745 35.2249 151.435 38.6615 146.891 38.6615C142.344 38.6615 139.077 35.2694 139.077 31.0782ZM151.354 31.0782V31.036C151.354 28.5102 149.502 26.4048 146.89 26.4048C144.278 26.4048 142.467 28.4672 142.467 30.9945V31.0367C142.467 33.564 144.321 35.6701 146.934 35.6701C149.545 35.6694 151.354 33.607 151.354 31.0782Z" fill="#FAFAF8"/>
    <path d="M157.42 23.6676H160.408L167.318 32.7428V23.6676H170.517V38.4085H167.761L160.62 29.0368V38.4085H157.42V23.6676Z" fill="#FAFAF8"/>
    <path d="M3.63382 44.2664H2.01514V58.6194H3.63382V44.2664Z" fill="#FAFAF8"/>
    <path d="M7.57227 44.2664H9.09134L18.1348 55.7714V44.2664H19.712V58.6194H18.4238L9.15095 46.8479V58.6194H7.57227V44.2664Z" fill="#FAFAF8"/>
    <path d="M27.2978 45.7651H22.4795V44.2664H33.7612V45.7651H28.9429V58.6209H27.2978V45.7651Z" fill="#FAFAF8"/>
    <path d="M36.5293 44.2664H46.9039V45.7439H38.148V50.6445H45.9818V52.119H38.148V57.1456H47.0073V58.6194H36.5293V44.2664Z" fill="#FAFAF8"/>
    <path d="M50.0015 44.2664H56.1736C57.9364 44.2664 59.3521 44.8006 60.2524 45.7032C60.9489 46.4005 61.3624 47.4026 61.3624 48.5308V48.5693C61.3624 50.9509 59.7211 52.3447 57.4655 52.7559L61.8748 58.6202H59.8818L55.7238 53.0404H55.6808H51.6217V58.6202H50.0015V44.2664ZM56.0325 51.5893C58.1847 51.5893 59.7211 50.4792 59.7211 48.6326V48.5949C59.7211 46.8283 58.3688 45.7635 56.0521 45.7635H51.6217V51.5893H56.0325Z" fill="#FAFAF8"/>
    <path d="M64.5586 44.2664H66.0754L75.1189 55.7714V44.2664H76.6998V58.6194H75.4064L66.1358 46.8479V58.6194H64.5586V44.2664Z" fill="#FAFAF8"/>
    <path d="M85.8018 44.1661H87.3224L93.8613 58.6211H92.1188L90.4375 54.8275H82.6248L80.9216 58.6211H79.2622L85.8018 44.1661ZM89.8029 53.3711L86.5391 46.0512L83.2602 53.3711H89.8029Z" fill="#FAFAF8"/>
    <path d="M98.3703 45.7651H93.5513V44.2664H104.833V45.7651H100.012V58.6209H98.3703V45.7651Z" fill="#FAFAF8"/>
    <path d="M109.363 44.2664H107.743V58.6194H109.363V44.2664Z" fill="#FAFAF8"/>
    <path d="M112.666 51.4865V51.4435C112.666 47.4847 115.641 44.0217 120.008 44.0217C124.379 44.0217 127.311 47.4432 127.311 51.4005C127.332 51.4239 127.332 51.4239 127.311 51.4435C127.311 55.4023 124.336 58.866 119.969 58.866C115.599 58.866 112.666 55.443 112.666 51.4865ZM125.627 51.4865V51.4435C125.627 48.1812 123.252 45.5174 119.969 45.5174C116.687 45.5174 114.348 48.1428 114.348 51.4005V51.4435C114.348 54.7043 116.727 57.3711 120.008 57.3711C123.291 57.3719 125.627 54.7435 125.627 51.4865Z" fill="#FAFAF8"/>
    <path d="M130.47 44.2665H131.986L141.032 55.7716V44.2665H142.609V58.6195H141.317L132.047 46.8481V58.6195H130.47V44.2665Z" fill="#FAFAF8"/>
    <path d="M151.717 44.1661H153.232L159.777 58.6211H158.031L156.351 54.8275H148.539L146.832 58.6211H145.177L151.717 44.1661ZM155.712 53.3711L152.454 46.0512L149.172 53.3711H155.712Z" fill="#FAFAF8"/>
    <path d="M162.338 44.2664H163.959V57.1268H172.036V58.6194H162.338V44.2664Z" fill="#FAFAF8"/>
    <path d="M191.548 52.9441C185.948 47.3522 182.464 39.5622 182.472 31.0153C182.464 22.4691 185.948 14.6783 191.548 9.08046C197.144 3.47734 204.933 -0.00452337 213.483 4.41055e-06C222.029 -0.00452337 229.821 3.47734 235.414 9.08046C241.016 14.6783 244.5 22.4691 244.5 31.0153C244.5 39.5615 241.016 47.3515 235.415 52.9441C229.82 58.5509 222.029 62.0343 213.484 62.029H213.472C204.929 62.029 197.138 58.5502 191.548 52.9441ZM200.008 17.5421C196.549 21.0066 194.429 25.7314 194.427 31.0153C194.43 36.2962 196.549 41.0247 200.008 44.4892C203.477 47.9409 208.2 50.0636 213.483 50.0682C218.765 50.0636 223.489 47.9416 226.957 44.4892C230.411 41.0239 232.535 36.2962 232.536 31.0153C232.535 25.7314 230.412 21.0066 226.957 17.5421C223.488 14.0814 218.765 11.9616 213.483 11.9616C208.2 11.9616 203.477 14.0814 200.008 17.5421Z" fill="#FAFAF8"/>
    <path d="M236.453 66.0399H190.517V78H236.453V66.0399Z" fill="#FAFAF8"/>
</svg>
