<svg width="100" height="78" viewBox="0 0 100 78" fill="none" xmlns="http://www.w3.org/2000/svg">
  <mask id="mask0_4798_378" style="mask-type:luminance" maskUnits="userSpaceOnUse" x="0" y="0" width="100" height="78">
    <path d="M99.84 0H0V78H99.84V0Z" fill="white"/>
  </mask>
  <g mask="url(#mask0_4798_378)">
    <path fill-rule="evenodd" clip-rule="evenodd" d="M77.1534 9.9646C79.4914 11.9053 80.9016 14.8163 81.1985 18.3991C81.7923 25.2287 78.4893 33.6258 72.2918 40.8661C67.7272 46.2028 62.1606 50.2336 56.6681 52.1742C54.3302 53.0325 52.0665 53.4431 49.9882 53.4431C49.8955 53.4431 49.8119 53.4337 49.7285 53.4244C49.6449 53.4151 49.5614 53.4058 49.4687 53.4058C49.3202 53.4431 49.1347 53.4431 48.9492 53.4431C46.908 53.4431 44.6443 52.9952 42.2691 52.1742C36.7397 50.2336 31.2101 46.2402 26.6454 40.8661C20.485 33.6258 17.1821 25.2287 17.7758 18.3991C18.0727 14.8163 19.483 11.9053 21.821 9.9646C25.3094 7.09091 30.3936 6.60575 36.1459 8.65838C36.6654 8.84497 37.2221 9.06891 37.7416 9.29283C37.9642 8.8823 38.1869 8.47177 38.4096 8.09857C41.4898 2.87369 45.6833 0 50.2109 0C54.7384 0 58.9319 2.87369 62.0121 8.09857C62.0863 8.21053 62.1513 8.33183 62.2162 8.45311C62.2812 8.57441 62.3461 8.69569 62.4204 8.80766C62.4619 8.79377 62.5085 8.7747 62.5583 8.75431C62.6423 8.71993 62.7355 8.6818 62.8286 8.65838C68.6179 6.64306 73.7021 7.09091 77.1534 9.9646ZM23.6395 12.2038C21.9324 13.6593 20.8932 15.8613 20.6334 18.6603C20.1139 24.6316 23.2683 32.4316 28.7979 39.0747C32.175 42.9933 36.0716 46.1656 40.0425 48.1809C40.228 48.2555 40.3764 48.3301 40.5246 48.4046C41.1613 48.7248 41.8255 48.9901 42.47 49.2476C42.5769 49.2902 42.6832 49.3327 42.7887 49.3751C42.8629 49.3938 42.9278 49.4218 42.9928 49.4497C43.0577 49.4777 43.1227 49.5058 43.1969 49.5244C43.3268 49.5617 43.466 49.6084 43.6051 49.655C43.7443 49.7017 43.8835 49.7483 44.0134 49.7856C45.9802 50.3828 47.7987 50.6441 49.4687 50.5694H49.7285C51.6953 50.4201 53.4024 49.823 54.7384 48.7033C56.4455 47.2478 57.4846 45.0459 57.7445 42.2469C58.264 36.2756 55.1095 28.4756 49.5428 21.9072C49.5428 21.8699 49.5058 21.8325 49.4687 21.7952C49.3521 21.6649 49.24 21.5346 49.1293 21.406C48.9229 21.166 48.7212 20.9315 48.5038 20.713C48.1697 20.3397 47.8357 20.0039 47.5018 19.668C44.8669 16.9808 42.0094 14.7789 39.0775 13.1742C38.8223 13.0108 38.5525 12.8766 38.2864 12.7442C38.1269 12.6649 37.9687 12.5863 37.8159 12.5024C37.3704 12.2785 36.9623 12.0919 36.5169 11.9053C36.0716 11.7187 35.6262 11.5321 35.1809 11.3828C33.1027 10.6737 31.1729 10.3005 29.4287 10.3005C27.1278 10.3005 25.1609 10.9349 23.6395 12.2038ZM50.2109 2.911C46.7224 2.911 43.4196 5.2622 40.8589 9.59139C40.7909 9.71458 40.7228 9.83274 40.6566 9.94773C40.5422 10.1463 40.4334 10.3353 40.3394 10.5244C43.531 12.2412 46.6483 14.6297 49.5058 17.5033C49.6727 17.6713 49.8397 17.8485 50.0067 18.0258C50.1737 18.2032 50.3407 18.3803 50.5078 18.5483C50.6163 18.6697 50.725 18.7871 50.8323 18.9031C51.0551 19.144 51.2722 19.3787 51.4727 19.6306C51.5468 19.78 51.6582 19.8919 51.7696 20.0039C57.7073 26.9828 60.973 35.044 60.6761 41.7244C62.6801 37.4699 63.7563 32.245 63.7563 26.7216C63.7563 21.5339 62.7915 16.645 61.0473 12.5397C60.8618 12.0919 60.6761 11.644 60.4535 11.2335C60.2309 10.7858 60.0084 10.3754 59.7857 9.96504L59.7854 9.9646C59.7483 9.90863 59.7113 9.84332 59.6742 9.77802C59.6371 9.7127 59.5999 9.64738 59.5628 9.59139C57.0022 5.29953 53.6993 2.911 50.2109 2.911ZM62.0121 45.3445C61.6782 45.9044 61.307 46.4641 60.9359 46.9866C64.2017 45.0086 67.3933 42.2469 70.1395 39.0373C75.7061 32.4689 78.8605 24.6689 78.341 18.6976C78.1183 15.8986 77.0791 13.6967 75.335 12.2412C73.8506 10.9722 71.8466 10.3378 69.5457 10.3378C67.8014 10.3378 65.8717 10.6737 63.7934 11.4201C63.775 11.4201 63.7563 11.4294 63.7378 11.4388C63.7192 11.4481 63.7007 11.4574 63.6822 11.4574C65.5748 15.8986 66.6139 21.1981 66.6139 26.7589C66.6139 33.7378 64.981 40.3436 62.0121 45.3445Z" fill="#FAFAF8"/>
    <path d="M7.1253 43.4038L8.27575 45.3071L10.4653 43.9263L6.79131 37.8802L4.60176 39.2238L5.75219 41.1272L0 44.6353L1.37311 46.9119L7.1253 43.4038Z" fill="#FAFAF8"/>
    <path fill-rule="evenodd" clip-rule="evenodd" d="M13.6198 47.8077C11.9498 45.6058 8.94382 45.1953 6.75429 46.8747C4.56474 48.5541 4.26784 51.5771 5.93783 53.7789C7.60783 55.9809 10.6138 56.3914 12.8034 54.712C14.9558 53.0325 15.2898 50.0097 13.6198 47.8077ZM11.5787 49.3752C12.358 50.4202 12.1725 51.801 11.1705 52.5847C10.1314 53.4058 8.75827 53.2192 7.97894 52.1742C7.19961 51.1292 7.38516 49.7483 8.38716 48.9647C9.42626 48.1809 10.7994 48.3302 11.5787 49.3752Z" fill="#FAFAF8"/>
    <path fill-rule="evenodd" clip-rule="evenodd" d="M13.5082 55.6822C15.3638 53.6296 18.4069 53.5177 20.448 55.3836C22.4891 57.2497 22.6747 60.31 20.819 62.3627C18.9635 64.4152 15.9205 64.5272 13.8793 62.6613C11.8382 60.7952 11.6527 57.7349 13.5082 55.6822ZM18.8522 60.5339C19.7057 59.5636 19.6686 58.22 18.6667 57.3244C17.7017 56.4286 16.3286 56.5033 15.4751 57.4736C14.6215 58.444 14.6587 59.7875 15.6607 60.6832C16.6255 61.5789 17.9615 61.5043 18.8522 60.5339Z" fill="#FAFAF8"/>
    <path d="M26.3487 71.4689C28.8352 72.8125 31.3588 71.9541 32.6205 69.6403L33.1401 68.6325L28.9836 66.3561L27.9074 68.3714L29.6517 69.3417C29.1321 69.7148 28.4641 69.7895 27.5734 69.3043C26.0518 68.4459 26.1261 67.0278 26.6456 66.0575C27.2765 64.9005 28.5012 64.49 29.6888 65.1244C30.3938 65.535 30.8021 66.132 30.8392 66.7292L33.4369 66.6919C33.3256 65.1617 32.435 63.6689 30.8762 62.8106C28.4641 61.467 25.6437 62.3627 24.3077 64.7886C23.0087 67.2144 23.7511 70.0508 26.3487 71.4689Z" fill="#FAFAF8"/>
    <path fill-rule="evenodd" clip-rule="evenodd" d="M33.8451 69.9389C34.6615 67.289 37.4077 65.9455 40.0055 66.7665C42.6404 67.5876 44.0876 70.312 43.234 72.9245C42.4176 75.5742 39.6714 76.9178 37.0737 76.0967C34.4759 75.2756 33.0285 72.5512 33.8451 69.9389ZM40.7476 72.1034C41.1559 70.8717 40.525 69.6403 39.2632 69.2297C38.0015 68.8192 36.8139 69.4536 36.4056 70.7225C35.9975 71.9541 36.6284 73.1856 37.8901 73.5962C39.1519 74.0067 40.3395 73.3723 40.7476 72.1034Z" fill="#FAFAF8"/>
    <path fill-rule="evenodd" clip-rule="evenodd" d="M49.5799 68.1846C46.8335 68.1846 44.644 70.3118 44.644 73.0735C44.644 75.8352 46.7964 77.9626 49.5799 77.9999C52.326 77.9999 54.5155 75.8726 54.5155 73.1109C54.5155 70.3118 52.326 68.1846 49.5799 68.1846ZM49.5799 70.8343C50.8787 70.8343 51.8436 71.8046 51.8436 73.1109C51.8436 74.3798 50.8787 75.3874 49.5799 75.3874C48.2809 75.3874 47.3161 74.4171 47.3161 73.1109C47.3161 71.8046 48.2809 70.8343 49.5799 70.8343Z" fill="#FAFAF8"/>
    <path fill-rule="evenodd" clip-rule="evenodd" d="M64.2021 70.3119C65.0185 72.8497 63.7568 75.3502 61.3074 76.1339L57.6334 77.3283L54.813 68.4086L58.487 67.2144C60.9364 66.4306 63.3856 67.7742 64.2021 70.3119ZM61.6414 71.0956C61.2703 69.9014 60.2683 69.3416 59.2293 69.6775L58.2272 70.0134L59.489 74.0067L60.491 73.6708C61.53 73.335 62.0497 72.29 61.6414 71.0956Z" fill="#FAFAF8"/>
    <path d="M70.9933 64.2286L72.8861 63.1091L71.5871 60.8698L65.501 64.4525L66.7998 66.6919L68.6924 65.5722L72.0695 71.4316L74.3704 70.088L70.9933 64.2286Z" fill="#FAFAF8"/>
    <path fill-rule="evenodd" clip-rule="evenodd" d="M74.4443 64.6766C72.7372 62.5119 73.1082 59.4889 75.2236 57.7349C77.3759 56.0181 80.382 56.2794 82.1262 58.4439C83.8703 60.6086 83.4622 63.6316 81.3097 65.3856C79.1573 67.1397 76.1514 66.8411 74.4443 64.6766ZM80.048 60.1608C79.2316 59.1531 77.8956 59.0038 76.8564 59.8249C75.8173 60.6459 75.706 62.0267 76.4852 63.0344C77.3018 64.0421 78.6378 64.1914 79.6768 63.3703C80.716 62.5119 80.8644 61.1684 80.048 60.1608Z" fill="#FAFAF8"/>
    <path d="M91.8499 54.7119C93.6682 52.51 93.3344 49.823 91.3304 48.1435L90.5509 47.4717L87.5079 51.1291L89.2521 52.5847L90.5139 51.0545C90.7737 51.6516 90.6994 52.3234 90.0685 53.1072C88.9552 54.4507 87.5821 54.0775 86.7286 53.3683C85.6895 52.51 85.541 51.2038 86.3945 50.1588C86.9141 49.5244 87.5821 49.2631 88.1759 49.3378L88.6212 46.7627C87.0997 46.5388 85.4667 47.1358 84.3163 48.5167C82.5351 50.6441 82.8319 53.5922 84.9472 55.3836C87.0626 57.175 89.9573 56.9885 91.8499 54.7119Z" fill="#FAFAF8"/>
    <path fill-rule="evenodd" clip-rule="evenodd" d="M91.8124 47.1358C89.5857 45.5311 89.1033 42.5081 90.6991 40.2689C92.2948 38.0297 95.3008 37.4698 97.5275 39.0746C99.7541 40.6794 100.237 43.7024 98.6408 45.9416C97.0451 48.1808 94.0761 48.7406 91.8124 47.1358ZM96.0059 41.2392C94.9668 40.4928 93.5937 40.7167 92.8514 41.7989C92.0721 42.8813 92.3319 44.2248 93.371 44.9713C94.4102 45.7177 95.7832 45.4938 96.5254 44.4114C97.3048 43.3291 97.0451 41.9856 96.0059 41.2392Z" fill="#FAFAF8"/>
  </g>
</svg>
